:SAMPLES-PER-SECOND 30
:FRAME-RANGE 1-663
:FULLY-SPECIFIED
:DEGREES
228
root  31.8354 38.3161 106.288 -10.0571 -70.1132 7.09999
RightUpLeg  -11.1641 -18.2253 2.05485
RightLeg  10.5349 -27.8303 -0.136686
RightFoot  -4.64409 0.210856 -4.1367
RightToes  2.91037e-010 0 -3.6325e-017
Spine  2.74994 -2.49564 -4.0796
Spine1  3.68352 -3.08342 1.04913
HEad  22.3598 4.46017 -4.09691
LeftShoulder1  2.05664 -2.29303 -29.427
LeftArm  -9.3479 -36.9977 -46.3519
LeftForeArm  17.2305 0.84545 -16.1211
LeftHand  0.099979 0.590131 -2.52451
RightShoulder  7.73363 10.6277 47.9301
RightArm  13.5737 -1.12508 17.076
RightForeArm  10.5326 7.46819 15.12
RightHand  0.114472 2.91615 1.37894
LeftUpLeg  7.86779 8.10825 -3.34238
LeftLeg  10.5156 10.7969 -1.59236
LeftFoot  -15.0217 0.00247395 -2.72525
LeftToes  -4.9116e-011 5.71383e-011 -3.31847e-011
229
root  31.2479 38.2867 106.52 -8.42151 -72.082 5.54235
RightUpLeg  -11.1684 -16.8585 3.26524
RightLeg  11.8265 -27.6502 -1.32716
RightFoot  -5.19413 0.239655 -5.11065
RightToes  2.91037e-010 0 -3.6325e-017
Spine  3.02052 -2.66309 -2.92037
Spine1  3.36349 -3.42238 2.00079
HEad  20.9777 4.50944 -5.34311
LeftShoulder1  1.9798 -2.35657 -27.6915
LeftArm  -0.779517 -39.2601 -47.0832
LeftForeArm  15.5442 0.245844 -17.136
LeftHand  0.153372 0.182098 -3.47365
RightShoulder  7.95071 11.0545 47.8269
RightArm  15.6092 -1.02042 16.5892
RightForeArm  7.10122 10.0376 14.0892
RightHand  0.136221 2.94025 1.6763
LeftUpLeg  8.63799 8.73097 -2.7657
LeftLeg  10.783 11.9738 -0.972124
LeftFoot  -15.9833 -0.0567425 -3.76214
LeftToes  -4.9116e-011 5.71383e-011 -3.31847e-011
230
root  30.6335 38.2508 106.746 -5.51124 -74.4894 2.79667
RightUpLeg  -11.0204 -15.1131 4.6274
RightLeg  12.8886 -26.9472 -2.21579
RightFoot  -5.90896 0.181999 -4.67317
RightToes  2.91037e-010 0 -3.6325e-017
Spine  3.18985 -2.62531 -1.38317
Spine1  2.96412 -3.50398 2.9087
HEad  20.0002 4.00041 -6.08292
LeftShoulder1  1.93029 -2.41773 -26.4682
LeftArm  5.5281 -39.6891 -47.8377
LeftForeArm  13.4364 -1.56507 -17.4237
LeftHand  0.206596 -0.0776132 -4.41378
RightShoulder  8.19899 11.4676 47.9587
RightArm  15.9052 -0.637674 15.883
RightForeArm  5.02419 11.4747 13.3255
RightHand  0.188341 2.78767 2.45986
LeftUpLeg  8.8984 11.3998 -1.39388
LeftLeg  12.2256 11.0989 -0.340289
LeftFoot  -16.5817 -0.111414 -4.60368
LeftToes  -4.9116e-011 5.71383e-011 -3.31847e-011
231
root  29.9784 38.2368 106.944 -3.56082 -76.9225 0.971764
RightUpLeg  -10.4828 -13.0318 5.28051
RightLeg  13.6951 -26.7395 -2.58675
RightFoot  -6.71218 0.142735 -4.64891
RightToes  2.91037e-010 0 -3.6325e-017
Spine  3.36413 -2.44979 -0.412802
Spine1  2.73998 -3.46915 3.88344
HEad  19.3082 3.51751 -6.57434
LeftShoulder1  1.91521 -2.32074 -26.7613
LeftArm  7.31491 -39.1326 -47.5413
LeftForeArm  12.2051 -3.91004 -16.944
LeftHand  0.226183 -0.224776 -4.68693
RightShoulder  8.26208 11.6417 47.7684
RightArm  14.6214 -0.0591317 15.601
RightForeArm  4.78783 12.0747 12.8341
RightHand  0.207721 2.69002 2.77605
LeftUpLeg  8.53983 18.2929 0.547076
LeftLeg  15.6897 5.936 0.639472
LeftFoot  -16.7744 -0.246786 -7.30988
LeftToes  -4.9116e-011 5.71383e-011 -3.31847e-011
232
root  29.3321 38.2062 107.096 -2.88254 -79.2133 0.459014
RightUpLeg  -9.96458 -11.2654 5.25852
RightLeg  14.6262 -26.2608 -2.40047
RightFoot  -7.68891 0.0963489 -4.6466
RightToes  2.91037e-010 0 -3.6325e-017
Spine  3.27882 -2.41336 0.876467
Spine1  2.81059 -3.21749 3.44028
HEad  19.2994 2.83033 -6.02463
LeftShoulder1  1.91338 -2.28827 -26.9189
LeftArm  8.143 -38.1847 -47.1424
LeftForeArm  10.5675 -6.21287 -16.2173
LeftHand  0.26103 -0.390352 -5.23596
RightShoulder  8.53112 11.9831 48.2399
RightArm  12.6218 0.608107 15.2949
RightForeArm  5.09882 11.8021 12.8775
RightHand  0.204564 2.74409 2.70814
LeftUpLeg  6.82666 23.5898 2.12241
LeftLeg  21.7734 1.87241 1.15708
LeftFoot  -15.9572 -0.349096 -11.0009
LeftToes  -4.9116e-011 5.71383e-011 -3.31847e-011
233
root  28.7218 38.0947 107.191 0.946883 -81.2747 -3.22576
RightUpLeg  -9.8346 -9.40214 5.88509
RightLeg  16.2118 -26.23 -2.86659
RightFoot  -8.92969 0.0287045 -4.22681
RightToes  2.91037e-010 0 -3.6325e-017
Spine  3.30992 -2.4532 2.54001
Spine1  2.92882 -2.97822 3.12355
HEad  19.3251 2.08308 -5.47798
LeftShoulder1  1.94317 -2.33887 -27.1506
LeftArm  9.47313 -37.1557 -46.8676
LeftForeArm  8.19669 -8.15651 -15.5264
LeftHand  0.297537 -0.670691 -5.6629
RightShoulder  8.88008 12.6144 48.2418
RightArm  10.2537 1.30473 15.1858
RightForeArm  5.32774 11.0093 13.2202
RightHand  0.242119 2.70479 3.26313
LeftUpLeg  3.49192 25.2027 4.07333
LeftLeg  30.5415 0.388713 0.595146
LeftFoot  -13.672 -0.25185 -16.2925
LeftToes  -4.9116e-011 5.71383e-011 -3.31847e-011
234
root  28.1282 37.9267 107.245 7.77654 -82.9331 -10.1667
RightUpLeg  -9.66951 -7.84691 6.85716
RightLeg  18.2433 -25.9928 -3.79633
RightFoot  -10.4848 -0.0435858 -3.64555
RightToes  2.91037e-010 0 -3.6325e-017
Spine  3.47119 -2.5988 3.86072
Spine1  3.29947 -2.93124 3.34745
HEad  19.0759 1.50093 -5.00266
LeftShoulder1  1.96743 -2.3867 -27.2973
LeftArm  11.3403 -36.6276 -46.7508
LeftForeArm  5.67381 -9.30062 -15.1735
LeftHand  0.311561 -0.873785 -5.71683
RightShoulder  9.22002 13.3547 47.8785
RightArm  7.51359 2.4524 14.9458
RightForeArm  6.23018 10.0238 13.5742
RightHand  0.30408 2.83517 4.07498
LeftUpLeg  -0.480544 25.0818 6.06119
LeftLeg  39.8804 -0.914664 -0.442385
LeftFoot  -8.22981 0.578217 -19.3237
LeftToes  -4.9116e-011 5.71383e-011 -3.31847e-011
235
root  27.6101 37.6793 107.294 19.4095 -84.3346 -21.9662
RightUpLeg  -9.89443 -7.27996 8.03519
RightLeg  20.914 -24.7364 -4.86625
RightFoot  -12.2937 -0.108939 -3.1091
RightToes  2.91037e-010 0 -3.6325e-017
Spine  3.88352 -2.78617 5.14603
Spine1  3.63898 -2.918 3.83584
HEad  18.9257 1.2813 -4.60298
LeftShoulder1  1.99632 -2.43359 -27.5275
LeftArm  11.2796 -36.4294 -46.5608
LeftForeArm  5.53163 -9.58334 -15.0289
LeftHand  0.303402 -0.79037 -5.64988
RightShoulder  9.65145 14.3742 47.2403
RightArm  6.37564 3.68468 14.675
RightForeArm  5.35176 10.1761 13.4828
RightHand  0.3043 2.58933 4.22437
LeftUpLeg  -5.06287 23.043 7.48996
LeftLeg  48.8487 -1.98807 -2.01134
LeftFoot  -1.67013 1.49834 -17.4782
LeftToes  -4.9116e-011 5.71383e-011 -3.31847e-011
236
root  27.1191 37.4052 107.381 36.1825 -85.3797 -38.9301
RightUpLeg  -10.2433 -7.02371 9.04242
RightLeg  23.8662 -23.4641 -6.03235
RightFoot  -14.1286 -0.155352 -2.45932
RightToes  2.91037e-010 0 -3.6325e-017
Spine  4.49101 -3.03672 6.65868
Spine1  3.82328 -2.83598 4.07644
HEad  18.9352 1.32467 -4.47582
LeftShoulder1  2.01695 -2.49209 -27.5446
LeftArm  10.4396 -36.4008 -46.3151
LeftForeArm  5.50151 -9.2853 -15.1557
LeftHand  0.30713 -0.873017 -5.75363
RightShoulder  9.84719 14.945 46.6886
RightArm  3.06147 5.82656 14.3485
RightForeArm  6.87268 9.72926 13.3899
RightHand  0.306116 2.78115 4.13526
LeftUpLeg  -9.16304 20.0945 8.39648
LeftLeg  55.6926 -2.14575 -2.8985
LeftFoot  1.15829 1.66731 -15.2156
LeftToes  -4.9116e-011 5.71383e-011 -3.31847e-011
237
root  26.5529 37.3527 107.476 58.8046 -86.8167 -61.7113
RightUpLeg  -9.45307 -6.48487 9.04247
RightLeg  24.6094 -21.7738 -6.13547
RightFoot  -15.1833 -0.173446 -2.11054
RightToes  2.91037e-010 0 -3.6325e-017
Spine  4.86695 -2.95179 7.16276
Spine1  3.86157 -2.52601 3.82433
HEad  19.3 1.77527 -4.48285
LeftShoulder1  2.03109 -2.5136 -27.6629
LeftArm  10.0066 -36.303 -45.9185
LeftForeArm  4.68224 -9.09178 -15.286
LeftHand  0.311545 -0.812399 -5.78022
RightShoulder  9.7639 15.0621 45.9795
RightArm  2.34928 8.48924 14.1382
RightForeArm  5.34701 10.5742 12.9886
RightHand  0.287905 2.73107 3.90472
LeftUpLeg  -12.4426 17.1426 8.31907
LeftLeg  59.6639 -1.80791 -2.80314
LeftFoot  -0.20312 1.29201 -13.1928
LeftToes  -4.9116e-011 5.71383e-011 -3.31847e-011
238
root  25.9613 37.3896 107.56 115.139 -87.4864 -118.231
RightUpLeg  -8.30188 -6.08481 8.5441
RightLeg  24.6417 -19.4324 -5.80919
RightFoot  -15.7807 -0.182796 -1.96323
RightToes  2.91037e-010 0 -3.6325e-017
Spine  5.25437 -2.51555 7.55581
Spine1  3.66231 -1.79035 2.88776
HEad  20.1879 3.11348 -4.72378
LeftShoulder1  2.03986 -2.5071 -27.8505
LeftArm  10.0842 -35.881 -45.4408
LeftForeArm  4.14566 -9.31979 -15.2005
LeftHand  0.313723 -0.806451 -5.82741
RightShoulder  10.2392 16.4003 44.9197
RightArm  3.08648 9.19316 14.2472
RightForeArm  2.32688 13.1196 11.5679
RightHand  0.266277 2.37531 3.791
LeftUpLeg  -14.7713 14.3897 7.77468
LeftLeg  60.3864 -1.40899 -2.13476
LeftFoot  -1.0907 0.961001 -10.6198
LeftToes  -4.9116e-011 5.71383e-011 -3.31847e-011
239
root  25.3348 37.5187 107.63 159.484 -85.5579 -162.859
RightUpLeg  -6.6333 -5.59182 7.60455
RightLeg  23.8183 -17.1338 -5.11275
RightFoot  -16.0058 -0.196481 -2.16713
RightToes  2.91037e-010 0 -3.6325e-017
Spine  5.60074 -2.00848 7.83774
Spine1  3.39485 -0.954644 1.3558
HEad  21.3971 5.93199 -4.98625
LeftShoulder1  2.0315 -2.43903 -28.1047
LeftArm  11.6654 -34.9429 -44.5572
LeftForeArm  2.46881 -10.4619 -14.7299
LeftHand  0.325764 -0.860276 -5.99542
RightShoulder  10.647 17.6542 43.8732
RightArm  5.98819 10.2197 14.5923
RightForeArm  -2.04322 16.2753 9.63813
RightHand  0.277169 2.27687 4.01321
LeftUpLeg  -16.112 11.3125 6.83521
LeftLeg  58.1054 -0.652507 -0.614672
LeftFoot  -2.11173 0.72276 -8.78619
LeftToes  -4.9116e-011 5.71383e-011 -3.31847e-011
